# xmcd CD database file
# Copyright (C) 1997 Ti Kan
# 
# Track frame offsets:
#     150
#     13850
#     31305
#     46925
#     68077
#     83617
#     97122
#     109190
#     120032
#     131895
#     145252
# 
# Disc length: 2090 seconds
# 
# Revision: 1
# Processed by: cddbd v1.4b41PL1 Copyright (c) Steve Scherf et al.
# Submitted via: DiscPlay 4.0.3
# 
DISCID=8d08280b
DTITLE=The Fabulous Thunderbirds - The Fabulous Thunderbirds
DYEAR=1900
DGENRE=
TTITLE0=Wait On Time
TTITLE1=Scratch My Back
TTITLE2=Rich Woman
TTITLE3=Full-Time Lover
TTITLE4=Pocket Rocket
TTITLE5=She's Tuff
TTITLE6=Marked Deck
TTITLE7=Walkin' To My Baby
TTITLE8=Rock With Me
TTITLE9=C-Boy's Blues
TTITLE10=Let Me In
EXTD=
EXTT0=
EXTT1=
EXTT2=
EXTT3=
EXTT4=
EXTT5=
EXTT6=
EXTT7=
EXTT8=
EXTT9=
EXTT10=
PLAYORDER=
